<svg xmlns="http://www.w3.org/2000/svg" viewBox="0 0 388.67 256"><defs><style>.a{fill:#ddd;}.b{fill:#aaa;}</style></defs><title>photo</title><rect class="a" width="388.67" height="256"/><circle class="b" cx="196.24" cy="135.5" r="9.5"/><path class="b" d="M221.6,114H211.33v0c0-2.47-1.75-5-4.22-5H186.32a5.45,5.45,0,0,0-5,5v0H171c-2.47,0-5.69,2.2-5.69,4.67v32.86c0,2.47,3.23,4.47,5.69,4.47H221.6c2.47,0,3.74-2,3.74-4.47V118.67C225.33,116.2,224.07,114,221.6,114Zm-46.26,8h-4v-2h4v2Zm20.91,25.5a12,12,0,1,1,12-12A12,12,0,0,1,196.24,147.5Z"/></svg>